<svg width="160" height="160" viewBox="0 0 160 160" fill="none" xmlns="http://www.w3.org/2000/svg">
<path d="M159.519 47.0166C159.13 38.501 157.777 32.6855 155.8 27.5977C153.792 22.2595 150.642 17.4243 146.572 13.4277C142.577 9.35791 137.74 6.20728 132.402 4.198C127.313 2.22168 121.499 0.870361 112.983 0.483398C104.452 0.0927734 101.726 0 80 0C58.2739 0 55.5481 0.0927734 47.0166 0.480957C38.501 0.870361 32.6868 2.2229 27.5977 4.20044C22.2595 6.2085 17.4243 9.35791 13.4277 13.4277C9.35791 17.4231 6.20728 22.2583 4.198 27.5964C2.22168 32.6855 0.870361 38.501 0.483398 47.0154C0.0927734 55.5481 0 58.2727 0 79.9988C0 101.726 0.0927734 104.452 0.483398 112.983C0.871582 121.498 2.22412 127.313 4.20166 132.402C6.20972 137.739 9.35913 142.576 13.429 146.571C17.4243 150.641 22.2607 153.79 27.5989 155.798C32.6868 157.777 38.5022 159.128 47.0178 159.518C55.5505 159.907 58.2751 159.999 80.0012 159.999C101.727 159.999 104.453 159.907 112.985 159.518C121.5 159.128 127.314 157.777 132.404 155.798C143.149 151.643 151.644 143.148 155.8 132.402C157.778 127.313 159.13 121.498 159.519 112.983C159.907 104.451 160 101.726 160 80C160 58.2727 159.907 55.5481 159.519 47.0166V47.0166ZM145.118 112.328C144.763 120.128 143.459 124.364 142.365 127.183C139.673 134.16 134.159 139.674 127.181 142.366C124.363 143.461 120.127 144.764 112.327 145.12C103.893 145.505 101.362 145.586 80 145.586C58.6365 145.586 56.1072 145.505 47.6721 145.12C39.873 144.764 35.6372 143.461 32.8174 142.366C29.3433 141.083 26.2 139.038 23.6194 136.381C20.9619 133.8 18.9172 130.658 17.6343 127.183C16.5393 124.364 15.2356 120.128 14.8804 112.328C14.4958 103.893 14.4141 101.362 14.4141 80.0012C14.4141 58.6389 14.4958 56.1096 14.8804 47.6733C15.2368 39.873 16.5393 35.6372 17.6343 32.8186C18.9172 29.3433 20.9631 26.2 23.6194 23.6194C26.2 20.9619 29.3433 18.9172 32.8186 17.6355C35.6372 16.5393 39.873 15.2368 47.6733 14.8804C56.1084 14.4958 58.6389 14.4141 80 14.4141H79.9988C101.36 14.4141 103.89 14.4958 112.327 14.8816C120.127 15.2368 124.362 16.5405 127.181 17.6355C130.656 18.9185 133.799 20.9631 136.379 23.6194C139.037 26.2 141.082 29.3433 142.363 32.8186C143.459 35.6372 144.763 39.873 145.118 47.6733C145.503 56.1084 145.585 58.6389 145.585 80C145.585 101.362 145.504 103.892 145.118 112.328Z" fill="url(#paint0_linear_1989_3589)"/>
<path d="M79.9988 38.9185C57.3108 38.9185 38.9185 57.312 38.9185 80C38.9185 102.688 57.3108 121.08 79.9988 121.08C102.688 121.08 121.08 102.688 121.08 80C121.08 57.312 102.688 38.9185 79.9988 38.9185V38.9185ZM79.9988 106.666C65.2722 106.665 53.3325 94.7266 53.3337 79.9988C53.3337 65.2722 65.2722 53.3325 80 53.3325C94.7278 53.3337 106.666 65.2722 106.666 79.9988C106.666 94.7266 94.7266 106.666 79.9988 106.666V106.666Z" fill="url(#paint1_linear_1989_3589)"/>
<path d="M132.303 37.2961C132.303 42.5977 128.005 46.8958 122.704 46.8958C117.401 46.8958 113.103 42.5977 113.103 37.2961C113.103 31.9934 117.401 27.6953 122.704 27.6953C128.005 27.6953 132.303 31.9934 132.303 37.2961V37.2961Z" fill="#AF2D8C"/>
<defs>
<linearGradient id="paint0_linear_1989_3589" x1="13.4269" y1="146.572" x2="146.573" y2="13.4256" gradientUnits="userSpaceOnUse">
<stop stop-color="#F2B361"/>
<stop offset="0.5" stop-color="#D4475E"/>
<stop offset="1" stop-color="#9E2CAB"/>
</linearGradient>
<linearGradient id="paint1_linear_1989_3589" x1="50.9509" y1="109.048" x2="109.048" y2="50.9509" gradientUnits="userSpaceOnUse">
<stop stop-color="#E98052"/>
<stop offset="0.5" stop-color="#D85060"/>
<stop offset="1" stop-color="#C5336D"/>
</linearGradient>
</defs>
</svg>
