<svg width="24" height="24" viewBox="0 0 24 24" fill="none" xmlns="http://www.w3.org/2000/svg">
<path fill-rule="evenodd" clip-rule="evenodd" d="M17.6007 7.94191H6.47927C5.84559 7.94191 5.32113 8.43461 5.28161 9.06705V18C5.28161 21.5 6.57759 21.1 9.00024 21.1H15.0797C17.5023 21.1 19 21.5 18.7983 18V9.06705C18.7588 8.43461 18.2343 7.94191 17.6007 7.94191ZM6.47927 6.14191C4.89508 6.14191 3.58393 7.37367 3.48511 8.95477L3.48511 19C3.48511 22.5 5.53932 22.9 9.00024 22.9H15.0797C18.5406 22.9 20.5948 22.5 20.5948 19V8.95477C20.496 7.37367 19.1849 6.14191 17.6007 6.14191H6.47927Z" fill="black"/>
<path fill-rule="evenodd" clip-rule="evenodd" d="M12.2761 2.8C11.0812 2.8 10.1125 3.76867 10.1125 4.96359V6.1419H8.3125V4.96359C8.3125 2.77456 10.0871 1 12.2761 1C14.4651 1 16.2397 2.77456 16.2397 4.96359V6.1419H14.4397V4.96359C14.4397 3.76867 13.471 2.8 12.2761 2.8Z" fill="black"/>
</svg>
